<svg width="1015" height="1015" viewBox="0 0 1015 1015" fill="none" xmlns="http://www.w3.org/2000/svg">
<g filter="url(#filter0_d_155_64)">
<path d="M859.95 0H155.05C71.6274 0 4 67.6274 4 151.05V855.95C4 939.373 71.6274 1007 155.05 1007H859.95C943.373 1007 1011 939.373 1011 855.95V151.05C1011 67.6274 943.373 0 859.95 0Z" fill="#1877F2"/>
<path d="M703.393 649.044L725.814 503.501H586.172V409.095C586.172 369.365 605.643 330.423 668.187 330.423H731.715V206.515C731.715 206.515 674.088 196.681 619.017 196.681C503.96 196.681 428.828 266.305 428.828 392.574V503.501H300.986V649.044H428.828V1007H586.172V649.044H703.393Z" fill="white"/>
</g>
<defs>
<filter id="filter0_d_155_64" x="0" y="0" width="1015" height="1015" filterUnits="userSpaceOnUse" color-interpolation-filters="sRGB">
<feFlood flood-opacity="0" result="BackgroundImageFix"/>
<feColorMatrix in="SourceAlpha" type="matrix" values="0 0 0 0 0 0 0 0 0 0 0 0 0 0 0 0 0 0 127 0" result="hardAlpha"/>
<feOffset dy="4"/>
<feGaussianBlur stdDeviation="2"/>
<feComposite in2="hardAlpha" operator="out"/>
<feColorMatrix type="matrix" values="0 0 0 0 0 0 0 0 0 0 0 0 0 0 0 0 0 0 0.25 0"/>
<feBlend mode="normal" in2="BackgroundImageFix" result="effect1_dropShadow_155_64"/>
<feBlend mode="normal" in="SourceGraphic" in2="effect1_dropShadow_155_64" result="shape"/>
</filter>
</defs>
</svg>
