<svg width="1007" height="1007" viewBox="0 0 1007 1007" fill="none" xmlns="http://www.w3.org/2000/svg">
<path d="M335.707 503.5C335.707 410.812 410.828 335.653 503.52 335.653C596.212 335.653 671.374 410.812 671.374 503.5C671.374 596.188 596.212 671.347 503.52 671.347C410.828 671.347 335.707 596.188 335.707 503.5ZM244.969 503.5C244.969 646.293 360.722 762.041 503.52 762.041C646.318 762.041 762.072 646.293 762.072 503.5C762.072 360.707 646.318 244.959 503.52 244.959C360.722 244.959 244.969 360.707 244.969 503.5ZM711.885 234.708C711.872 268.077 738.913 295.138 772.283 295.152C805.653 295.165 832.716 268.125 832.73 234.756C832.743 201.387 805.702 174.325 772.331 174.312C738.977 174.327 711.914 201.354 711.885 234.708ZM300.098 913.337C251.007 911.101 224.324 902.925 206.592 896.016C183.084 886.865 166.311 875.965 148.675 858.355C131.04 840.744 120.124 823.988 111.012 800.48C104.1 782.757 95.9226 756.068 93.691 706.978C91.2499 653.905 90.7625 637.963 90.7625 503.504C90.7625 369.045 91.2902 353.147 93.691 300.03C95.9266 250.94 104.164 224.303 111.012 206.528C120.164 183.02 131.064 166.248 148.675 148.613C166.287 130.978 183.044 120.063 206.592 110.951C224.316 104.039 251.007 95.8624 300.098 93.6309C353.173 91.1899 369.117 90.7025 503.52 90.7025C637.924 90.7025 653.883 91.2302 707.003 93.6309C756.094 95.8664 782.732 104.104 800.508 110.951C824.017 120.063 840.79 131.003 858.425 148.613C876.061 166.223 886.937 183.02 896.089 206.528C903.001 224.251 911.178 250.94 913.41 300.03C915.851 353.147 916.338 369.045 916.338 503.504C916.338 637.963 915.851 653.861 913.41 706.978C911.174 756.068 902.957 782.749 896.089 800.48C886.937 823.988 876.036 840.76 858.425 858.355C840.814 875.949 824.017 886.865 800.508 896.016C782.785 902.929 756.094 911.105 707.003 913.337C653.928 915.778 637.984 916.265 503.52 916.265C369.056 916.265 353.157 915.778 300.098 913.337ZM295.929 3.0492C242.326 5.49016 205.698 13.9892 173.71 26.4358C140.583 39.2891 112.539 56.533 84.5148 84.5115C56.4909 112.49 39.2907 140.577 26.4368 173.703C13.9898 205.71 5.49038 242.316 3.04932 295.917C0.567971 349.602 0 366.766 0 503.5C0 640.234 0.567971 657.398 3.04932 711.083C5.49038 764.688 13.9898 801.29 26.4368 833.297C39.2907 866.403 56.495 894.522 84.5148 922.489C112.535 950.455 140.583 967.675 173.71 980.564C205.758 993.011 242.326 1001.51 295.929 1003.95C349.644 1006.39 366.78 1007 503.52 1007C640.26 1007 657.424 1006.43 711.111 1003.95C764.718 1001.51 801.322 993.011 833.33 980.564C866.437 967.675 894.502 950.467 922.525 922.489C950.549 894.51 967.713 866.403 980.603 833.297C993.05 801.29 1001.59 764.684 1003.99 711.083C1006.43 657.357 1007 640.234 1007 503.5C1007 366.766 1006.43 349.602 1003.99 295.917C1001.55 242.312 993.05 205.69 980.603 173.703C967.713 140.597 950.505 112.534 922.525 84.5115C894.546 56.4887 866.437 39.2891 833.37 26.4358C801.322 13.9892 764.714 5.44988 711.152 3.0492C657.464 0.608228 640.3 0 503.56 0C366.82 0 349.644 0.567948 295.929 3.0492Z" fill="url(#paint0_radial_155_60)"/>
<defs>
<radialGradient id="paint0_radial_155_60" cx="0" cy="0" r="1" gradientUnits="userSpaceOnUse" gradientTransform="translate(2140.66 16188.1) scale(21033.7)">
<stop offset="0.09" stop-color="#FA8F21"/>
<stop offset="0.78" stop-color="#D82D7E"/>
</radialGradient>
</defs>
</svg>
