<svg width="1008" height="1008" viewBox="0 0 1008 1008" fill="none" xmlns="http://www.w3.org/2000/svg">
<path d="M504 1008C782.352 1008 1008 782.352 1008 504C1008 225.648 782.352 0 504 0C225.648 0 0 225.648 0 504C0 782.352 225.648 1008 504 1008Z" fill="#1DA1F2"/>
<path d="M765.845 349.257C747.338 357.427 727.552 362.94 706.684 365.499C727.946 352.702 744.287 332.523 751.965 308.504C732.08 320.12 709.932 328.585 686.504 333.31C667.702 313.229 641.026 300.629 611.298 300.629C554.401 300.629 508.234 346.796 508.234 403.595C508.234 411.765 509.218 419.64 510.891 427.121C425.251 423.085 349.257 381.938 298.463 319.726C289.505 334.885 284.485 352.407 284.485 371.602C284.485 407.434 302.696 438.934 330.357 457.44C313.426 456.849 297.577 452.223 283.698 444.545V445.824C283.698 495.83 319.135 537.47 366.385 546.92C357.723 549.282 348.568 550.463 339.216 550.463C332.621 550.463 326.321 549.873 320.021 548.691C333.212 589.641 371.209 619.468 416.49 620.255C381.348 647.916 336.657 664.355 288.718 664.355C280.548 664.355 272.377 663.863 264.207 662.977C310.079 692.213 364.121 709.243 422.495 709.243C611.987 709.243 715.641 552.235 715.641 416.293C715.641 411.962 715.641 407.532 715.346 403.102C735.427 388.632 753.048 370.421 766.829 349.749L765.845 349.257Z" fill="white"/>
</svg>
